<svg preserveAspectRatio="none" width="100%" height="100%" overflow="visible" style="display: block;" viewBox="0 0 14 10" fill="none" xmlns="http://www.w3.org/2000/svg">
<path id="&#226;&#128;&#156;" opacity="0.5" d="M11.2596 0L12.5404 1.19186L10.9319 2.87791C11.2894 3.38178 11.7163 3.90504 12.2128 4.44767C12.7291 4.99031 13.3248 5.56201 14 6.16279C13.4837 6.70543 12.9078 7.24806 12.2723 7.7907C11.6369 8.31395 11.0511 8.75969 10.5149 9.12791C9.81986 8.25581 9.16454 7.37403 8.54894 6.48256C7.93333 5.5717 7.36738 4.67054 6.85106 3.77907C7.5461 3.23643 8.27092 2.63566 9.02553 1.97674C9.8 1.31783 10.5447 0.658914 11.2596 0ZM4.40851 0.872092L5.68936 2.06395L4.08085 3.75C4.4383 4.25388 4.86525 4.77713 5.3617 5.31977C5.87801 5.8624 6.47376 6.43411 7.14894 7.03488C6.63262 7.57752 6.05674 8.12015 5.42128 8.66279C4.78582 9.18605 4.2 9.63178 3.66383 10C2.96879 9.12791 2.31348 8.24612 1.69787 7.35465C1.08227 6.4438 0.516312 5.54264 0 4.65116C0.695035 4.10853 1.41986 3.50775 2.17447 2.84884C2.94894 2.18992 3.69362 1.53101 4.40851 0.872092Z" fill="var(--fill-0, #DDE2E8)"/>
</svg>
