<svg preserveAspectRatio="none" width="100%" height="100%" overflow="visible" style="display: block;" viewBox="0 0 27.8338 11.1592" fill="none" xmlns="http://www.w3.org/2000/svg">
<path id="Ellipse 4462" d="M13.917 0.5C17.7125 0.500012 21.1255 1.11807 23.5713 2.09863C24.7956 2.58948 25.7534 3.16098 26.3965 3.77051C27.0383 4.37896 27.334 4.99108 27.334 5.58008C27.3338 6.16893 27.0382 6.78039 26.3965 7.38867C25.7534 7.9982 24.7956 8.5697 23.5713 9.06055C21.1255 10.0411 17.7125 10.6592 13.917 10.6592C10.1215 10.6592 6.70852 10.0411 4.2627 9.06055C3.0384 8.5697 2.08054 7.9982 1.4375 7.38867C0.79574 6.78035 0.500161 6.16896 0.5 5.58008C0.5 4.99104 0.795562 4.37899 1.4375 3.77051C2.08054 3.16098 3.0384 2.58948 4.2627 2.09863C6.70852 1.11811 10.1216 0.5 13.917 0.5Z" stroke="url(#paint0_linear_0_12)"/>
<defs>
<linearGradient id="paint0_linear_0_12" x1="13.9169" y1="0" x2="13.9169" y2="11.1592" gradientUnits="userSpaceOnUse">
<stop stop-color="#C0F1E1"/>
<stop offset="1" stop-color="#73F5CA"/>
</linearGradient>
</defs>
</svg>
